<mxfile host="app.diagrams.net" modified="2023-07-16T21:28:03.279Z" agent="Mozilla/5.0 (Windows NT 10.0; Win64; x64; rv:109.0) Gecko/20100101 Firefox/115.0" etag="j3SMsJJ_sYF-ar55pMbt" version="21.6.2" type="github">
  <diagram id="C5RBs43oDa-KdzZeNtuy" name="Page-1">
    <mxGraphModel dx="988" dy="540" grid="1" gridSize="10" guides="1" tooltips="1" connect="1" arrows="1" fold="1" page="1" pageScale="1" pageWidth="827" pageHeight="1169" math="0" shadow="0">
      <root>
        <mxCell id="WIyWlLk6GJQsqaUBKTNV-0" />
        <mxCell id="WIyWlLk6GJQsqaUBKTNV-1" parent="WIyWlLk6GJQsqaUBKTNV-0" />
        <mxCell id="GQoujBaEVHZr6_92T_9z-4" value="" style="edgeStyle=orthogonalEdgeStyle;rounded=0;orthogonalLoop=1;jettySize=auto;html=1;" edge="1" parent="WIyWlLk6GJQsqaUBKTNV-1" source="WIyWlLk6GJQsqaUBKTNV-3" target="GQoujBaEVHZr6_92T_9z-3">
          <mxGeometry relative="1" as="geometry" />
        </mxCell>
        <mxCell id="WIyWlLk6GJQsqaUBKTNV-3" value="&lt;div&gt;Start Generation Script&lt;/div&gt;" style="rounded=1;whiteSpace=wrap;html=1;fontSize=12;glass=0;strokeWidth=1;shadow=0;" parent="WIyWlLk6GJQsqaUBKTNV-1" vertex="1">
          <mxGeometry x="160" y="80" width="120" height="40" as="geometry" />
        </mxCell>
        <mxCell id="WIyWlLk6GJQsqaUBKTNV-4" value="Yes" style="rounded=0;html=1;jettySize=auto;orthogonalLoop=1;fontSize=11;endArrow=block;endFill=0;endSize=8;strokeWidth=1;shadow=0;labelBackgroundColor=none;edgeStyle=orthogonalEdgeStyle;" parent="WIyWlLk6GJQsqaUBKTNV-1" target="WIyWlLk6GJQsqaUBKTNV-10" edge="1">
          <mxGeometry y="20" relative="1" as="geometry">
            <mxPoint as="offset" />
            <mxPoint x="220" y="250" as="sourcePoint" />
          </mxGeometry>
        </mxCell>
        <mxCell id="WIyWlLk6GJQsqaUBKTNV-5" value="No" style="edgeStyle=orthogonalEdgeStyle;rounded=0;html=1;jettySize=auto;orthogonalLoop=1;fontSize=11;endArrow=block;endFill=0;endSize=8;strokeWidth=1;shadow=0;labelBackgroundColor=none;" parent="WIyWlLk6GJQsqaUBKTNV-1" target="WIyWlLk6GJQsqaUBKTNV-7" edge="1">
          <mxGeometry y="10" relative="1" as="geometry">
            <mxPoint as="offset" />
            <mxPoint x="270" y="210" as="sourcePoint" />
          </mxGeometry>
        </mxCell>
        <mxCell id="WIyWlLk6GJQsqaUBKTNV-8" value="No" style="rounded=0;html=1;jettySize=auto;orthogonalLoop=1;fontSize=11;endArrow=block;endFill=0;endSize=8;strokeWidth=1;shadow=0;labelBackgroundColor=none;edgeStyle=orthogonalEdgeStyle;" parent="WIyWlLk6GJQsqaUBKTNV-1" target="WIyWlLk6GJQsqaUBKTNV-11" edge="1">
          <mxGeometry x="0.3333" y="20" relative="1" as="geometry">
            <mxPoint as="offset" />
            <mxPoint x="220" y="370" as="sourcePoint" />
          </mxGeometry>
        </mxCell>
        <mxCell id="WIyWlLk6GJQsqaUBKTNV-9" value="Yes" style="edgeStyle=orthogonalEdgeStyle;rounded=0;html=1;jettySize=auto;orthogonalLoop=1;fontSize=11;endArrow=block;endFill=0;endSize=8;strokeWidth=1;shadow=0;labelBackgroundColor=none;" parent="WIyWlLk6GJQsqaUBKTNV-1" target="WIyWlLk6GJQsqaUBKTNV-12" edge="1">
          <mxGeometry y="10" relative="1" as="geometry">
            <mxPoint as="offset" />
            <mxPoint x="270" y="330" as="sourcePoint" />
          </mxGeometry>
        </mxCell>
        <mxCell id="GQoujBaEVHZr6_92T_9z-0" value="&lt;div&gt;Dungeon Generation&lt;/div&gt;" style="text;html=1;align=center;verticalAlign=middle;resizable=0;points=[];autosize=1;strokeColor=none;fillColor=none;" vertex="1" parent="WIyWlLk6GJQsqaUBKTNV-1">
          <mxGeometry x="150" y="10" width="140" height="30" as="geometry" />
        </mxCell>
        <mxCell id="GQoujBaEVHZr6_92T_9z-10" value="" style="edgeStyle=orthogonalEdgeStyle;rounded=0;orthogonalLoop=1;jettySize=auto;html=1;" edge="1" parent="WIyWlLk6GJQsqaUBKTNV-1" source="GQoujBaEVHZr6_92T_9z-1" target="GQoujBaEVHZr6_92T_9z-9">
          <mxGeometry relative="1" as="geometry" />
        </mxCell>
        <mxCell id="GQoujBaEVHZr6_92T_9z-1" value="&lt;div&gt;Get random room width and height&lt;/div&gt;" style="rounded=1;whiteSpace=wrap;html=1;" vertex="1" parent="WIyWlLk6GJQsqaUBKTNV-1">
          <mxGeometry x="160" y="410" width="120" height="60" as="geometry" />
        </mxCell>
        <mxCell id="GQoujBaEVHZr6_92T_9z-7" value="" style="edgeStyle=orthogonalEdgeStyle;rounded=0;orthogonalLoop=1;jettySize=auto;html=1;" edge="1" parent="WIyWlLk6GJQsqaUBKTNV-1" source="GQoujBaEVHZr6_92T_9z-3" target="GQoujBaEVHZr6_92T_9z-6">
          <mxGeometry relative="1" as="geometry" />
        </mxCell>
        <mxCell id="GQoujBaEVHZr6_92T_9z-3" value="Get random number of rooms to generate" style="rounded=1;whiteSpace=wrap;html=1;" vertex="1" parent="WIyWlLk6GJQsqaUBKTNV-1">
          <mxGeometry x="160" y="160" width="120" height="60" as="geometry" />
        </mxCell>
        <mxCell id="GQoujBaEVHZr6_92T_9z-8" value="&lt;div&gt;No&lt;/div&gt;" style="edgeStyle=orthogonalEdgeStyle;rounded=0;orthogonalLoop=1;jettySize=auto;html=1;" edge="1" parent="WIyWlLk6GJQsqaUBKTNV-1" source="GQoujBaEVHZr6_92T_9z-6" target="GQoujBaEVHZr6_92T_9z-1">
          <mxGeometry relative="1" as="geometry" />
        </mxCell>
        <mxCell id="GQoujBaEVHZr6_92T_9z-25" value="Yes" style="edgeStyle=orthogonalEdgeStyle;rounded=0;orthogonalLoop=1;jettySize=auto;html=1;" edge="1" parent="WIyWlLk6GJQsqaUBKTNV-1" source="GQoujBaEVHZr6_92T_9z-6" target="GQoujBaEVHZr6_92T_9z-24">
          <mxGeometry relative="1" as="geometry" />
        </mxCell>
        <mxCell id="GQoujBaEVHZr6_92T_9z-6" value="All rooms generated?" style="rhombus;whiteSpace=wrap;html=1;" vertex="1" parent="WIyWlLk6GJQsqaUBKTNV-1">
          <mxGeometry x="165" y="260" width="110" height="110" as="geometry" />
        </mxCell>
        <mxCell id="GQoujBaEVHZr6_92T_9z-13" value="" style="edgeStyle=orthogonalEdgeStyle;rounded=0;orthogonalLoop=1;jettySize=auto;html=1;" edge="1" parent="WIyWlLk6GJQsqaUBKTNV-1" source="GQoujBaEVHZr6_92T_9z-9" target="GQoujBaEVHZr6_92T_9z-12">
          <mxGeometry relative="1" as="geometry" />
        </mxCell>
        <mxCell id="GQoujBaEVHZr6_92T_9z-9" value="Get random location" style="rounded=1;whiteSpace=wrap;html=1;" vertex="1" parent="WIyWlLk6GJQsqaUBKTNV-1">
          <mxGeometry x="160" y="510" width="120" height="60" as="geometry" />
        </mxCell>
        <mxCell id="GQoujBaEVHZr6_92T_9z-15" value="Yes" style="edgeStyle=orthogonalEdgeStyle;rounded=0;orthogonalLoop=1;jettySize=auto;html=1;entryX=0;entryY=0.5;entryDx=0;entryDy=0;" edge="1" parent="WIyWlLk6GJQsqaUBKTNV-1" source="GQoujBaEVHZr6_92T_9z-11" target="GQoujBaEVHZr6_92T_9z-9">
          <mxGeometry relative="1" as="geometry">
            <Array as="points">
              <mxPoint x="120" y="765" />
              <mxPoint x="120" y="540" />
            </Array>
          </mxGeometry>
        </mxCell>
        <mxCell id="GQoujBaEVHZr6_92T_9z-39" value="" style="edgeStyle=orthogonalEdgeStyle;rounded=0;orthogonalLoop=1;jettySize=auto;html=1;" edge="1" parent="WIyWlLk6GJQsqaUBKTNV-1" source="GQoujBaEVHZr6_92T_9z-11" target="GQoujBaEVHZr6_92T_9z-38">
          <mxGeometry relative="1" as="geometry" />
        </mxCell>
        <mxCell id="GQoujBaEVHZr6_92T_9z-11" value="&lt;div&gt;Will room&lt;/div&gt;&lt;div&gt;overlap?&lt;/div&gt;" style="rhombus;whiteSpace=wrap;html=1;" vertex="1" parent="WIyWlLk6GJQsqaUBKTNV-1">
          <mxGeometry x="165" y="710" width="110" height="110" as="geometry" />
        </mxCell>
        <mxCell id="GQoujBaEVHZr6_92T_9z-14" value="" style="edgeStyle=orthogonalEdgeStyle;rounded=0;orthogonalLoop=1;jettySize=auto;html=1;" edge="1" parent="WIyWlLk6GJQsqaUBKTNV-1" source="GQoujBaEVHZr6_92T_9z-12" target="GQoujBaEVHZr6_92T_9z-11">
          <mxGeometry relative="1" as="geometry" />
        </mxCell>
        <mxCell id="GQoujBaEVHZr6_92T_9z-12" value="Check if room will no&amp;nbsp; overlap on other room" style="rounded=1;whiteSpace=wrap;html=1;" vertex="1" parent="WIyWlLk6GJQsqaUBKTNV-1">
          <mxGeometry x="160" y="610" width="120" height="60" as="geometry" />
        </mxCell>
        <mxCell id="GQoujBaEVHZr6_92T_9z-20" style="edgeStyle=orthogonalEdgeStyle;rounded=0;orthogonalLoop=1;jettySize=auto;html=1;entryX=0;entryY=0.5;entryDx=0;entryDy=0;" edge="1" parent="WIyWlLk6GJQsqaUBKTNV-1" source="GQoujBaEVHZr6_92T_9z-18" target="GQoujBaEVHZr6_92T_9z-6">
          <mxGeometry relative="1" as="geometry">
            <Array as="points">
              <mxPoint x="220" y="1040" />
              <mxPoint x="80" y="1040" />
              <mxPoint x="80" y="315" />
            </Array>
          </mxGeometry>
        </mxCell>
        <mxCell id="GQoujBaEVHZr6_92T_9z-18" value="Place building on it&#39;s place" style="rounded=1;whiteSpace=wrap;html=1;" vertex="1" parent="WIyWlLk6GJQsqaUBKTNV-1">
          <mxGeometry x="160" y="960" width="120" height="60" as="geometry" />
        </mxCell>
        <mxCell id="GQoujBaEVHZr6_92T_9z-27" value="" style="edgeStyle=orthogonalEdgeStyle;rounded=0;orthogonalLoop=1;jettySize=auto;html=1;" edge="1" parent="WIyWlLk6GJQsqaUBKTNV-1" source="GQoujBaEVHZr6_92T_9z-24" target="GQoujBaEVHZr6_92T_9z-26">
          <mxGeometry relative="1" as="geometry" />
        </mxCell>
        <mxCell id="GQoujBaEVHZr6_92T_9z-24" value="&lt;div&gt;Get central location&lt;/div&gt;&lt;div&gt;of all rooms&lt;/div&gt;" style="rounded=1;whiteSpace=wrap;html=1;" vertex="1" parent="WIyWlLk6GJQsqaUBKTNV-1">
          <mxGeometry x="320" y="285" width="120" height="60" as="geometry" />
        </mxCell>
        <mxCell id="GQoujBaEVHZr6_92T_9z-33" value="" style="edgeStyle=orthogonalEdgeStyle;rounded=0;orthogonalLoop=1;jettySize=auto;html=1;" edge="1" parent="WIyWlLk6GJQsqaUBKTNV-1" source="GQoujBaEVHZr6_92T_9z-26" target="GQoujBaEVHZr6_92T_9z-32">
          <mxGeometry relative="1" as="geometry" />
        </mxCell>
        <mxCell id="GQoujBaEVHZr6_92T_9z-26" value="Pick 2 closest to each other rooms" style="rounded=1;whiteSpace=wrap;html=1;" vertex="1" parent="WIyWlLk6GJQsqaUBKTNV-1">
          <mxGeometry x="480" y="285" width="120" height="60" as="geometry" />
        </mxCell>
        <mxCell id="GQoujBaEVHZr6_92T_9z-35" value="" style="edgeStyle=orthogonalEdgeStyle;rounded=0;orthogonalLoop=1;jettySize=auto;html=1;" edge="1" parent="WIyWlLk6GJQsqaUBKTNV-1" source="GQoujBaEVHZr6_92T_9z-32" target="GQoujBaEVHZr6_92T_9z-34">
          <mxGeometry relative="1" as="geometry" />
        </mxCell>
        <mxCell id="GQoujBaEVHZr6_92T_9z-32" value="Connect rooms with corridor" style="rounded=1;whiteSpace=wrap;html=1;" vertex="1" parent="WIyWlLk6GJQsqaUBKTNV-1">
          <mxGeometry x="480" y="390" width="120" height="60" as="geometry" />
        </mxCell>
        <mxCell id="GQoujBaEVHZr6_92T_9z-36" value="&lt;div&gt;No&lt;/div&gt;" style="edgeStyle=orthogonalEdgeStyle;rounded=0;orthogonalLoop=1;jettySize=auto;html=1;entryX=1;entryY=0.5;entryDx=0;entryDy=0;" edge="1" parent="WIyWlLk6GJQsqaUBKTNV-1" source="GQoujBaEVHZr6_92T_9z-34" target="GQoujBaEVHZr6_92T_9z-26">
          <mxGeometry relative="1" as="geometry">
            <Array as="points">
              <mxPoint x="640" y="545" />
              <mxPoint x="640" y="315" />
            </Array>
          </mxGeometry>
        </mxCell>
        <mxCell id="GQoujBaEVHZr6_92T_9z-42" value="Yes" style="edgeStyle=orthogonalEdgeStyle;rounded=0;orthogonalLoop=1;jettySize=auto;html=1;" edge="1" parent="WIyWlLk6GJQsqaUBKTNV-1" source="GQoujBaEVHZr6_92T_9z-34" target="GQoujBaEVHZr6_92T_9z-41">
          <mxGeometry relative="1" as="geometry" />
        </mxCell>
        <mxCell id="GQoujBaEVHZr6_92T_9z-34" value="All rooms connected?" style="rhombus;whiteSpace=wrap;html=1;" vertex="1" parent="WIyWlLk6GJQsqaUBKTNV-1">
          <mxGeometry x="485" y="490" width="110" height="110" as="geometry" />
        </mxCell>
        <mxCell id="GQoujBaEVHZr6_92T_9z-40" value="" style="edgeStyle=orthogonalEdgeStyle;rounded=0;orthogonalLoop=1;jettySize=auto;html=1;" edge="1" parent="WIyWlLk6GJQsqaUBKTNV-1" source="GQoujBaEVHZr6_92T_9z-38" target="GQoujBaEVHZr6_92T_9z-18">
          <mxGeometry relative="1" as="geometry" />
        </mxCell>
        <mxCell id="GQoujBaEVHZr6_92T_9z-38" value="Save room central position" style="rounded=1;whiteSpace=wrap;html=1;" vertex="1" parent="WIyWlLk6GJQsqaUBKTNV-1">
          <mxGeometry x="160" y="860" width="120" height="60" as="geometry" />
        </mxCell>
        <mxCell id="GQoujBaEVHZr6_92T_9z-44" value="" style="edgeStyle=orthogonalEdgeStyle;rounded=0;orthogonalLoop=1;jettySize=auto;html=1;" edge="1" parent="WIyWlLk6GJQsqaUBKTNV-1" source="GQoujBaEVHZr6_92T_9z-41" target="GQoujBaEVHZr6_92T_9z-43">
          <mxGeometry relative="1" as="geometry" />
        </mxCell>
        <mxCell id="GQoujBaEVHZr6_92T_9z-41" value="Set Wall on each empty tile adjacent floor tile " style="rounded=1;whiteSpace=wrap;html=1;" vertex="1" parent="WIyWlLk6GJQsqaUBKTNV-1">
          <mxGeometry x="320" y="610" width="120" height="60" as="geometry" />
        </mxCell>
        <mxCell id="GQoujBaEVHZr6_92T_9z-43" value="Dungeon Generated!" style="ellipse;whiteSpace=wrap;html=1;rounded=1;" vertex="1" parent="WIyWlLk6GJQsqaUBKTNV-1">
          <mxGeometry x="340" y="740" width="80" height="80" as="geometry" />
        </mxCell>
      </root>
    </mxGraphModel>
  </diagram>
</mxfile>
